{"glyphs":{"0":{"ha":926,"x_min":0,"x_max":0,"o":"m 464 196 b 328 482 354 196 328 311 b 461 776 328 575 331 776 b 599 485 604 776 599 588 b 464 196 599 321 567 196 z m 39 499 b 464 -21 39 218 147 -21 b 888 500 781 -21 888 221 b 464 993 888 825 718 993 b 39 499 240 993 40 858 z "},"1":{"ha":926,"x_min":0,"x_max":0,"o":"m 651 993 l 432 993 b 136 768 400 824 289 771 l 136 571 l 363 571 l 363 0 l 651 0 z "},"2":{"ha":926,"x_min":0,"x_max":0,"o":"m 901 0 l 901 236 l 447 236 b 644 354 499 272 574 310 b 904 676 772 433 904 504 b 511 993 904 904 714 993 b 96 589 257 993 100 876 l 356 589 b 497 776 354 683 386 776 b 615 678 556 776 615 740 b 194 278 615 515 358 449 b 78 0 117 197 72 114 z "},"3":{"ha":926,"x_min":0,"x_max":0,"o":"m 49 340 b 444 -21 44 97 217 -21 b 878 322 707 -21 878 94 b 738 526 878 418 826 492 b 851 719 817 565 851 631 b 475 993 851 886 707 993 b 79 672 271 993 89 897 l 340 672 b 467 776 349 742 399 776 b 581 689 524 776 581 753 b 408 589 581 597 476 583 l 408 418 b 589 310 478 418 589 422 b 460 196 589 253 544 196 b 356 235 415 196 379 210 b 321 340 332 260 319 296 z "},"4":{"ha":926,"x_min":0,"x_max":0,"o":"m 35 204 l 486 204 l 486 0 l 761 0 l 761 204 l 883 204 l 883 419 l 761 419 l 761 979 l 492 979 l 35 436 z m 486 718 l 486 419 l 253 419 z "},"5":{"ha":926,"x_min":0,"x_max":0,"o":"m 75 422 l 347 413 b 464 467 369 456 421 467 b 590 325 551 467 590 406 b 450 196 590 253 535 196 b 325 275 397 196 342 224 b 322 285 325 278 322 282 l 32 256 b 440 -21 88 75 226 -21 b 879 339 664 -21 879 68 b 546 649 879 535 733 649 b 343 596 472 649 404 640 l 375 743 l 800 743 l 800 979 l 172 979 z "},"6":{"ha":926,"x_min":0,"x_max":0,"o":"m 478 453 b 600 322 550 453 600 400 b 472 186 600 239 557 186 b 342 313 403 186 342 242 b 478 453 342 389 379 450 z m 865 735 b 465 993 824 933 649 993 b 38 489 193 993 38 790 b 497 -21 38 133 213 -21 b 889 325 718 -21 889 86 b 558 642 889 465 786 642 b 329 571 465 642 407 625 b 479 796 328 699 372 796 b 596 718 536 796 581 772 z "},"7":{"ha":926,"x_min":0,"x_max":0,"o":"m 581 743 b 243 0 413 567 274 328 l 543 0 b 865 760 553 331 689 617 l 865 979 l 78 979 l 78 743 z "},"8":{"ha":926,"x_min":0,"x_max":0,"o":"m 500 188 b 329 303 418 172 329 208 b 465 431 329 389 385 431 b 596 304 542 431 596 383 b 500 188 596 240 565 196 z m 461 588 b 339 689 396 588 339 617 b 464 797 338 761 393 797 b 583 692 531 797 583 758 b 461 588 583 622 526 588 z m 199 513 b 40 290 100 465 40 407 b 464 -21 40 75 235 -21 b 885 290 710 -21 885 93 b 721 519 885 406 825 479 b 850 722 813 556 850 628 b 474 993 850 879 696 993 b 72 717 263 993 72 906 b 199 513 72 596 122 554 z "},"9":{"ha":926,"x_min":0,"x_max":0,"o":"m 446 521 b 324 651 374 521 324 574 b 451 788 324 735 367 788 b 582 661 521 788 582 732 b 446 521 582 585 544 524 z m 58 238 b 458 -21 100 39 275 -21 b 886 483 731 -21 886 182 b 426 993 886 839 711 993 b 35 647 206 993 35 886 b 365 331 35 507 138 331 b 594 401 458 331 517 347 b 444 176 596 274 551 176 b 328 254 388 176 343 200 z "}," ":{"ha":463,"x_min":0,"x_max":0,"o":""},"!":{"ha":463,"x_min":0,"x_max":0,"o":"m 150 367 l 307 367 l 379 753 l 379 1000 l 83 1000 l 83 753 z m 371 0 l 371 269 l 85 269 l 85 0 z "},"\"":{"ha":694,"x_min":0,"x_max":0,"o":"m 557 624 l 557 1000 l 392 1000 l 392 624 z m 303 624 l 303 1000 l 138 1000 l 138 624 z "},"#":{"ha":917,"x_min":0,"x_max":0,"o":"m 764 438 l 640 438 l 657 560 l 800 560 l 800 689 l 675 689 l 717 979 l 592 979 l 551 689 l 432 689 l 472 979 l 351 979 l 310 689 l 156 689 l 156 560 l 293 560 l 275 438 l 117 438 l 117 308 l 256 308 l 213 0 l 335 0 l 379 308 l 497 308 l 454 0 l 578 0 l 622 308 l 764 308 z m 533 560 l 515 438 l 397 438 l 414 560 z "},"$":{"ha":926,"x_min":0,"x_max":0,"o":"m 397 632 b 293 728 353 650 293 661 b 397 813 293 781 358 815 z m 513 361 b 633 250 581 347 633 311 b 513 158 633 192 569 158 z m 397 993 b 51 688 219 967 51 903 b 397 385 51 478 235 435 l 397 167 b 283 311 324 182 283 235 l 32 311 b 397 -21 35 94 197 -14 l 397 -156 l 513 -156 l 513 -21 b 883 290 714 -14 883 63 b 513 611 883 499 686 558 l 513 804 b 629 694 583 806 625 750 l 869 694 b 513 993 872 908 694 983 l 513 1079 l 397 1079 z "},"%":{"ha":1389,"x_min":0,"x_max":0,"o":"m 768 271 b 1075 -32 768 103 910 -32 b 1379 271 1243 -32 1379 103 b 1075 578 1379 438 1243 578 b 768 271 908 578 768 438 z m 956 272 b 1075 390 956 338 1011 390 b 1192 272 1139 390 1192 335 b 1075 156 1192 210 1138 156 b 956 272 1014 156 956 208 z m 315 419 b 621 725 483 419 621 557 b 315 1029 621 893 482 1029 b 8 725 149 1029 8 892 b 315 419 8 557 147 419 z m 315 842 b 433 725 378 842 433 789 b 315 607 433 663 378 607 b 196 725 251 607 196 661 b 315 842 196 789 253 842 z m 1057 1038 l 917 1038 l 328 -43 l 468 -43 z "},"&":{"ha":1235,"x_min":0,"x_max":0,"o":"m 533 826 b 619 782 565 826 606 813 b 521 635 644 700 586 665 b 436 751 474 667 436 701 b 533 826 436 807 485 826 z m 825 0 l 1172 0 l 944 235 b 1113 478 1013 307 1067 390 l 849 478 b 783 394 832 446 811 418 l 697 483 b 860 736 799 539 860 617 b 526 1000 860 897 711 1000 b 186 750 368 1000 186 938 b 272 563 186 672 221 617 b 63 251 146 499 63 399 b 415 -26 63 58 232 -26 b 746 85 546 -26 679 28 z m 578 261 b 549 222 596 242 589 246 b 438 186 521 206 469 186 b 340 278 381 186 340 218 b 449 397 340 335 394 369 z "},"’":{"ha":386,"x_min":0,"x_max":0,"o":"m 58 499 b 313 781 194 497 319 611 l 313 1000 l 58 1000 l 58 746 l 169 746 b 143 654 169 707 160 676 b 58 611 126 632 99 618 z "},"(":{"ha":540,"x_min":0,"x_max":0,"o":"m 460 -247 b 333 381 382 -47 333 164 b 464 1000 333 593 389 803 l 217 1000 b 65 385 150 836 65 639 b 215 -247 65 103 142 -106 z "},")":{"ha":540,"x_min":0,"x_max":0,"o":"m 81 1000 b 207 372 158 800 207 589 b 76 -247 207 160 151 -50 l 324 -247 b 475 368 390 -83 475 114 b 325 1000 475 650 399 858 z "},"*":{"ha":772,"x_min":0,"x_max":0,"o":"m 126 871 l 75 718 l 267 667 l 140 504 l 268 410 l 389 582 l 510 410 l 636 507 l 504 669 l 697 735 l 644 878 l 461 807 l 461 1000 l 311 1000 l 311 807 z "},"+":{"ha":917,"x_min":0,"x_max":0,"o":"m 378 436 l 108 436 l 108 275 l 378 275 l 378 0 l 539 0 l 539 275 l 808 275 l 808 436 l 539 436 l 539 701 l 378 701 z "},",":{"ha":463,"x_min":0,"x_max":0,"o":"m 81 -244 b 375 44 261 -235 375 -142 l 375 286 l 81 286 l 81 0 l 215 0 b 178 -83 213 -33 200 -62 b 81 -124 156 -104 124 -118 z "},"-":{"ha":463,"x_min":0,"x_max":0,"o":"m 417 229 l 417 482 l 44 482 l 44 229 z "},".":{"ha":463,"x_min":0,"x_max":0,"o":"m 378 0 l 378 286 l 83 286 l 83 0 z "},"/":{"ha":386,"x_min":0,"x_max":0,"o":"m 256 1000 l -44 -125 l 131 -125 l 431 1000 z "},":":{"ha":463,"x_min":0,"x_max":0,"o":"m 378 0 l 378 286 l 83 286 l 83 0 z m 378 442 l 378 728 l 83 728 l 83 442 z "},";":{"ha":463,"x_min":0,"x_max":0,"o":"m 81 286 l 81 0 l 215 0 b 178 -83 213 -33 200 -62 b 81 -124 156 -104 124 -118 l 81 -244 b 375 44 261 -235 375 -142 l 375 286 z m 375 442 l 375 728 l 81 728 l 81 442 z "},"<":{"ha":917,"x_min":0,"x_max":0,"o":"m 811 150 l 317 353 l 811 561 l 811 739 l 104 424 l 104 286 l 811 -28 z "},"=":{"ha":917,"x_min":0,"x_max":0,"o":"m 808 572 l 108 572 l 108 411 l 808 411 z m 808 300 l 108 300 l 108 139 l 808 139 z "},">":{"ha":917,"x_min":0,"x_max":0,"o":"m 103 150 l 103 -28 l 810 286 l 810 424 l 103 739 l 103 561 l 597 353 z "},"?":{"ha":849,"x_min":0,"x_max":0,"o":"m 538 374 b 807 743 511 553 807 503 b 432 1026 807 931 646 1026 b 163 949 329 1026 233 1001 b 38 703 90 894 43 814 l 325 703 b 415 818 325 774 350 818 b 518 738 467 818 518 796 b 282 374 517 600 261 699 z m 267 269 l 267 0 l 553 0 l 553 269 z "},"@":{"ha":1028,"x_min":0,"x_max":0,"o":"m 389 469 b 525 619 389 542 446 619 b 636 501 593 619 636 569 b 494 347 636 422 581 347 b 389 469 426 347 389 404 z m 676 685 b 506 767 635 742 576 767 b 222 447 333 767 222 611 b 456 201 222 311 333 201 b 592 267 503 201 556 228 b 672 196 589 218 626 196 b 913 314 750 196 858 260 b 1019 600 989 392 1019 490 b 864 910 1019 726 958 831 b 538 1026 772 989 660 1026 b 7 500 242 1026 7 799 b 546 -26 7 196 247 -26 b 960 192 718 -26 860 54 l 822 192 b 557 99 754 139 663 99 b 146 500 319 99 146 254 b 533 901 146 731 300 901 b 906 554 746 901 906 779 b 771 300 906 404 831 300 b 754 350 742 300 750 324 l 822 756 l 690 756 z "},"A":{"ha":1081,"x_min":0,"x_max":0,"o":"m 643 340 l 436 340 l 538 699 z m 336 0 l 374 132 l 700 132 l 739 0 l 1065 0 l 707 1000 l 374 1000 l 15 0 z "},"B":{"ha":1081,"x_min":0,"x_max":0,"o":"m 532 418 b 713 325 636 418 713 413 b 571 233 713 250 651 233 l 428 233 l 428 418 z m 543 767 b 676 688 613 767 676 765 b 564 600 676 629 629 600 l 428 600 l 428 767 z m 588 0 b 1018 301 847 0 1018 78 b 851 531 1018 410 960 503 b 982 749 915 571 982 646 b 578 1000 982 947 803 1000 l 100 1000 l 100 0 z "},"C":{"ha":1081,"x_min":0,"x_max":0,"o":"m 1032 618 b 529 1026 1006 875 835 1026 b 31 501 250 1026 31 825 b 561 -26 31 176 231 -26 b 1039 388 825 -26 1010 129 l 724 388 b 556 218 711 292 661 218 b 358 490 389 218 358 350 b 543 782 358 683 428 782 b 721 618 646 782 711 722 z "},"D":{"ha":1081,"x_min":0,"x_max":0,"o":"m 418 767 l 481 767 b 724 503 656 767 724 711 b 488 233 724 314 640 233 l 418 233 z m 521 0 b 1051 521 842 0 1051 144 b 529 1000 1051 850 851 1000 l 90 1000 l 90 0 z "},"E":{"ha":1003,"x_min":0,"x_max":0,"o":"m 940 0 l 940 233 l 433 233 l 433 390 l 846 390 l 846 624 l 433 624 l 433 767 l 921 767 l 921 1000 l 106 1000 l 106 0 z "},"F":{"ha":926,"x_min":0,"x_max":0,"o":"m 431 0 l 431 351 l 789 351 l 789 585 l 431 585 l 431 767 l 881 767 l 881 1000 l 103 1000 l 103 0 z "},"G":{"ha":1157,"x_min":0,"x_max":0,"o":"m 1064 550 l 615 550 l 615 333 l 760 333 b 592 218 743 264 658 218 b 382 489 426 218 382 347 b 572 782 382 665 443 782 b 740 656 657 782 717 738 l 1051 656 b 578 1026 1011 901 818 1026 b 54 488 254 1026 54 807 b 539 -26 54 139 283 -26 b 840 96 696 -26 786 32 l 853 -3 l 1064 -3 z "},"H":{"ha":1157,"x_min":0,"x_max":0,"o":"m 424 0 l 424 388 l 733 388 l 733 0 l 1061 0 l 1061 1000 l 733 1000 l 733 663 l 424 663 l 424 1000 l 96 1000 l 96 0 z "},"I":{"ha":540,"x_min":0,"x_max":0,"o":"m 433 0 l 433 1000 l 106 1000 l 106 0 z "},"J":{"ha":926,"x_min":0,"x_max":0,"o":"m 38 435 b 436 -26 11 135 147 -26 b 826 386 701 -26 826 122 l 826 1000 l 499 1000 l 499 340 b 415 218 499 260 465 218 b 329 435 329 218 329 331 z "},"K":{"ha":1157,"x_min":0,"x_max":0,"o":"m 104 0 l 432 0 l 432 317 l 510 399 l 750 0 l 1143 0 l 739 624 l 1104 1000 l 719 1000 l 432 676 l 432 1000 l 104 1000 z "},"L":{"ha":926,"x_min":0,"x_max":0,"o":"m 883 0 l 883 233 l 433 233 l 433 1000 l 106 1000 l 106 0 z "},"M":{"ha":1311,"x_min":0,"x_max":0,"o":"m 378 0 l 378 339 l 371 494 l 357 642 l 360 642 l 542 0 l 769 0 l 951 642 l 954 642 l 938 461 l 933 306 l 933 0 l 1228 0 l 1228 1000 l 832 1000 l 656 376 l 479 1000 l 83 1000 l 83 0 z "},"N":{"ha":1157,"x_min":0,"x_max":0,"o":"m 403 1000 l 96 1000 l 96 0 l 410 0 l 410 317 l 397 544 l 754 0 l 1061 0 l 1061 1000 l 747 1000 l 747 682 l 760 454 z "},"O":{"ha":1157,"x_min":0,"x_max":0,"o":"m 575 782 b 775 506 719 786 775 642 b 578 218 775 340 719 218 b 382 506 421 218 382 378 b 575 782 382 632 426 782 z m 578 1026 b 54 508 267 1026 54 822 b 578 -26 54 168 264 -26 b 1103 506 874 -26 1103 165 b 578 1026 1103 769 935 1026 z "},"P":{"ha":1003,"x_min":0,"x_max":0,"o":"m 407 544 l 407 767 l 500 767 b 675 661 569 767 675 754 b 543 544 675 575 619 544 z m 407 0 l 407 311 l 572 311 b 988 663 860 311 988 447 b 561 1000 988 868 849 1000 l 79 1000 l 79 0 z "},"Q":{"ha":1157,"x_min":0,"x_max":0,"o":"m 515 340 l 628 228 b 578 218 613 222 596 218 b 382 506 421 218 382 378 b 575 782 382 632 426 782 b 775 506 699 782 775 676 b 761 378 775 450 771 413 l 654 486 z m 1100 33 l 986 149 b 1103 506 1067 249 1103 383 b 578 1026 1103 796 906 1026 b 54 508 267 1026 54 822 b 578 -26 54 172 260 -26 b 826 25 694 -26 776 3 l 963 -112 z "},"R":{"ha":1081,"x_min":0,"x_max":0,"o":"m 413 767 l 565 767 b 697 663 642 767 697 733 b 542 568 697 593 643 568 l 413 568 z m 513 349 b 688 175 665 349 688 306 b 704 0 688 86 696 22 l 1036 0 l 1036 31 b 1001 206 997 31 1001 75 b 832 471 1001 407 938 432 b 1000 715 949 503 1000 600 b 557 1000 1000 910 890 1000 l 85 1000 l 85 0 l 413 0 l 413 349 z "},"S":{"ha":1003,"x_min":0,"x_max":0,"o":"m 929 710 b 501 1026 906 885 779 1026 b 68 707 251 1026 68 919 b 643 278 68 325 643 429 b 507 204 643 231 589 204 b 414 229 475 204 440 213 b 360 308 386 246 367 272 l 46 308 b 489 -26 53 128 225 -26 b 957 318 764 -26 957 86 b 382 739 957 682 382 589 b 486 796 382 775 414 796 b 571 778 518 796 547 790 b 618 710 594 765 613 744 z "},"T":{"ha":1003,"x_min":0,"x_max":0,"o":"m 43 738 l 338 738 l 338 0 l 665 0 l 665 738 l 960 738 l 960 1000 l 43 1000 z "},"U":{"ha":1157,"x_min":0,"x_max":0,"o":"m 97 436 b 579 -26 97 92 269 -26 b 1060 435 911 -26 1060 114 l 1060 1000 l 732 1000 l 732 401 b 579 218 732 293 697 218 b 425 401 444 218 425 303 l 425 1000 l 97 1000 z "},"V":{"ha":1081,"x_min":0,"x_max":0,"o":"m 372 0 l 701 0 l 1049 1000 l 718 1000 l 536 335 l 361 1000 l 31 1000 z "},"W":{"ha":1389,"x_min":0,"x_max":0,"o":"m 829 1000 l 558 1000 l 439 382 l 436 382 l 324 1000 l 7 1000 l 256 0 l 578 0 l 692 581 l 694 581 l 810 0 l 1132 0 l 1381 1000 l 1064 1000 l 951 382 l 949 382 z "},"X":{"ha":1081,"x_min":0,"x_max":0,"o":"m 540 281 l 701 0 l 1069 0 l 729 519 l 1067 1000 l 699 1000 l 556 744 l 414 1000 l 46 1000 l 365 519 l 11 0 l 379 0 z "},"Y":{"ha":1081,"x_min":0,"x_max":0,"o":"m 704 369 l 1076 1000 l 715 1000 l 543 661 l 371 1000 l 4 1000 l 376 364 l 376 0 l 704 0 z "},"Z":{"ha":1003,"x_min":0,"x_max":0,"o":"m 951 0 l 951 233 l 446 233 l 932 768 l 932 1000 l 69 1000 l 69 767 l 529 767 l 50 238 l 50 0 z "},"[":{"ha":540,"x_min":0,"x_max":0,"o":"m 494 -247 l 494 -42 l 315 -42 l 315 794 l 494 794 l 494 1000 l 61 1000 l 61 -247 z "},"\\":{"ha":386,"x_min":0,"x_max":0,"o":"m -44 1000 l 256 -125 l 431 -125 l 131 1000 z "},"]":{"ha":540,"x_min":0,"x_max":0,"o":"m 479 1000 l 46 1000 l 46 794 l 225 794 l 225 -42 l 46 -42 l 46 -247 l 479 -247 z "},"^":{"ha":917,"x_min":0,"x_max":0,"o":"m 269 404 l 458 792 l 647 404 l 792 469 l 542 993 l 375 993 l 125 469 z "},"_":{"ha":694,"x_min":0,"x_max":0,"o":"m 0 -104 l 0 -174 l 694 -174 l 694 -104 z "},"‘":{"ha":386,"x_min":0,"x_max":0,"o":"m 328 1026 b 74 744 193 1029 68 915 l 74 525 l 328 525 l 328 779 l 217 779 b 243 872 217 819 225 850 b 328 914 261 894 289 908 z "},"a":{"ha":926,"x_min":0,"x_max":0,"o":"m 881 0 l 881 14 b 842 107 843 44 842 65 l 842 447 b 476 749 842 621 821 749 b 79 504 189 749 79 658 l 357 504 b 458 575 364 567 418 575 b 553 515 489 575 553 568 b 35 199 553 379 35 529 b 294 -21 35 47 157 -21 b 568 78 403 -21 486 1 l 582 0 z m 425 143 b 333 204 368 143 333 168 b 553 322 333 299 458 276 b 425 143 560 222 526 143 z "},"b":{"ha":926,"x_min":0,"x_max":0,"o":"m 356 1000 l 67 1000 l 67 0 l 326 0 l 326 103 l 329 103 b 553 -21 365 33 432 -21 b 882 368 790 -21 882 153 b 565 749 882 588 751 749 b 356 654 479 749 413 721 z m 471 188 b 349 364 376 188 349 286 b 471 525 349 439 383 525 b 593 358 564 525 593 436 b 471 188 593 279 565 188 z "},"c":{"ha":926,"x_min":0,"x_max":0,"o":"m 858 450 b 460 749 838 665 654 749 b 44 357 219 749 44 606 b 460 -21 44 111 225 -21 b 728 47 561 -21 656 0 b 864 282 801 96 851 172 l 572 282 b 460 174 564 225 535 174 b 333 356 375 174 333 246 b 460 554 333 442 351 554 b 535 525 492 554 517 544 b 565 450 553 507 564 482 z "},"d":{"ha":926,"x_min":0,"x_max":0,"o":"m 860 0 l 860 1000 l 571 1000 l 571 654 b 354 749 510 726 446 749 b 46 350 181 749 46 592 b 376 -21 46 144 157 -21 b 600 97 469 -21 532 8 l 600 0 z m 449 188 b 335 353 354 188 335 276 b 457 525 335 433 361 525 b 581 357 553 525 581 438 b 449 188 581 272 549 188 z "},"e":{"ha":926,"x_min":0,"x_max":0,"o":"m 332 446 b 467 572 332 524 381 572 b 594 446 535 572 594 513 z m 883 299 b 456 749 888 563 725 749 b 43 357 222 749 43 596 b 457 -21 43 113 224 -21 b 860 219 626 -21 810 39 l 583 219 b 475 156 563 176 521 156 b 332 299 399 156 332 213 z "},"f":{"ha":540,"x_min":0,"x_max":0,"o":"m 397 728 b 518 844 390 844 424 844 l 518 1026 l 394 1026 b 110 728 210 1026 110 985 l 13 728 l 13 561 l 108 561 l 108 0 l 397 0 l 397 561 l 518 561 l 518 728 z "},"g":{"ha":926,"x_min":0,"x_max":0,"o":"m 450 542 b 572 385 542 542 572 465 b 450 235 572 307 539 231 b 336 376 372 236 336 304 b 450 542 336 471 363 543 z m 85 -37 b 464 -247 99 -144 207 -247 b 847 142 822 -247 847 -76 l 847 728 l 593 728 l 593 632 b 372 749 542 703 460 749 b 47 379 133 749 47 558 b 364 35 47 193 163 35 b 572 114 468 35 531 72 l 572 54 b 456 -87 572 -50 539 -87 b 393 -69 426 -87 406 -81 b 375 -37 381 -58 375 -46 z "},"h":{"ha":926,"x_min":0,"x_max":0,"o":"m 67 0 l 356 0 l 356 371 b 468 521 356 464 379 521 b 569 385 550 521 569 457 l 569 0 l 858 0 l 858 436 b 576 749 858 636 768 749 b 356 636 479 749 414 710 l 356 1000 l 67 1000 z "},"i":{"ha":463,"x_min":0,"x_max":0,"o":"m 375 0 l 375 728 l 86 728 l 86 0 z m 86 821 l 375 821 l 375 1026 l 86 1026 z "},"j":{"ha":463,"x_min":0,"x_max":0,"o":"m 103 728 l 103 69 b -28 -37 103 -31 86 -37 l -28 -243 b 104 -247 24 -246 64 -247 b 392 69 374 -247 392 -111 l 392 728 z m 392 821 l 392 1026 l 103 1026 l 103 821 z "},"k":{"ha":926,"x_min":0,"x_max":0,"o":"m 417 258 l 572 0 l 919 0 l 615 446 l 885 728 l 547 728 l 363 506 l 363 1000 l 74 1000 l 74 0 l 363 0 l 363 204 z "},"l":{"ha":463,"x_min":0,"x_max":0,"o":"m 375 0 l 375 1000 l 86 1000 l 86 0 z "},"m":{"ha":1389,"x_min":0,"x_max":0,"o":"m 63 0 l 351 0 l 351 360 b 453 521 351 447 368 521 b 550 371 529 521 550 478 l 550 0 l 839 0 l 839 360 b 940 521 839 447 856 521 b 1038 371 1017 521 1038 478 l 1038 0 l 1326 0 l 1326 431 b 1047 749 1326 629 1260 749 b 796 615 940 749 858 703 b 558 749 761 693 689 749 b 328 619 454 749 364 675 l 328 728 l 63 728 z "},"n":{"ha":926,"x_min":0,"x_max":0,"o":"m 67 0 l 356 0 l 356 371 b 468 521 356 464 379 521 b 569 385 550 521 569 457 l 569 0 l 858 0 l 858 436 b 576 749 858 636 768 749 b 331 614 467 749 396 701 l 331 728 l 67 728 z "},"o":{"ha":926,"x_min":0,"x_max":0,"o":"m 465 554 b 588 371 540 558 588 478 b 463 174 588 233 540 174 b 338 371 389 174 338 233 b 465 554 338 453 367 554 z m 49 356 b 463 -21 49 107 229 -21 b 876 371 696 -21 876 104 b 461 749 876 597 718 749 b 49 356 215 749 49 608 z "},"p":{"ha":926,"x_min":0,"x_max":0,"o":"m 61 728 l 61 -247 l 350 -247 l 350 72 b 536 -21 399 11 457 -21 b 876 369 699 -21 876 83 b 551 749 876 569 771 749 b 324 619 468 749 364 708 l 321 619 l 321 728 z m 463 200 b 344 371 388 200 344 269 b 461 535 344 468 392 535 b 588 365 538 535 588 481 b 463 200 588 265 539 200 z "},"q":{"ha":926,"x_min":0,"x_max":0,"o":"m 574 365 b 454 197 574 294 539 197 b 326 371 350 197 326 285 b 454 533 326 453 361 533 b 574 365 546 533 574 442 z m 856 728 l 596 728 l 596 619 l 593 619 b 358 749 550 706 471 749 b 38 374 150 749 38 565 b 353 -21 38 115 189 -21 b 567 71 447 -21 507 -1 l 567 -247 l 856 -247 z "},"r":{"ha":617,"x_min":0,"x_max":0,"o":"m 72 0 l 361 0 l 361 251 b 539 464 361 408 421 464 b 599 456 558 464 579 458 l 599 744 b 561 749 586 746 574 749 b 338 581 449 749 378 694 l 335 581 l 335 728 l 72 728 z "},"s":{"ha":849,"x_min":0,"x_max":0,"o":"m 46 226 b 411 -21 61 31 244 -21 b 803 233 678 -21 803 82 b 343 539 803 506 343 438 b 425 590 343 575 375 590 b 483 572 447 590 468 585 b 511 519 499 560 508 543 l 774 519 b 413 749 757 713 571 749 b 68 508 261 749 68 694 b 514 203 68 226 514 319 b 422 138 514 151 467 138 b 351 160 394 138 369 146 b 321 226 332 175 321 197 z "},"t":{"ha":617,"x_min":0,"x_max":0,"o":"m 547 207 l 501 207 b 411 297 421 207 411 231 l 411 561 l 550 561 l 550 728 l 411 728 l 411 954 l 126 954 l 126 728 l 19 728 l 19 561 l 122 561 l 122 257 b 547 0 122 6 168 -21 z "},"u":{"ha":926,"x_min":0,"x_max":0,"o":"m 858 728 l 569 728 l 569 378 b 460 203 569 265 543 203 b 356 335 390 203 356 235 l 356 728 l 67 728 l 67 285 b 328 -21 67 76 169 -21 b 590 107 447 -21 518 7 l 590 0 l 858 0 z "},"v":{"ha":849,"x_min":0,"x_max":0,"o":"m 267 0 l 589 0 l 835 728 l 557 728 l 431 268 l 303 728 l 14 728 z "},"w":{"ha":1311,"x_min":0,"x_max":0,"o":"m 782 728 l 538 728 l 425 278 l 422 278 l 311 728 l 29 728 l 269 0 l 551 0 l 653 426 l 656 426 l 768 0 l 1050 0 l 1282 728 l 1008 728 l 896 278 l 893 278 z "},"x":{"ha":926,"x_min":0,"x_max":0,"o":"m 38 0 l 357 0 l 463 208 l 565 0 l 888 0 l 636 382 l 885 728 l 568 728 l 471 546 l 379 728 l 58 728 l 299 381 z "},"y":{"ha":849,"x_min":0,"x_max":0,"o":"m 299 728 l 8 728 l 247 65 b 165 -42 276 -15 256 -42 b 106 -40 146 -42 126 -40 l 106 -242 b 233 -247 128 -242 181 -247 b 597 49 490 -247 521 -176 l 831 728 l 553 728 l 426 279 z "},"z":{"ha":772,"x_min":0,"x_max":0,"o":"m 736 0 l 736 211 l 403 211 l 721 526 l 721 728 l 65 728 l 65 517 l 365 517 l 36 193 l 36 0 z "},"{":{"ha":540,"x_min":0,"x_max":0,"o":"m 406 179 b 292 385 406 314 381 361 l 292 388 b 406 576 386 410 406 472 l 406 856 b 510 1024 406 953 428 997 l 510 1026 b 139 828 178 1042 139 1000 l 139 550 b 35 388 139 456 114 408 l 35 385 b 139 221 121 361 139 318 l 139 -24 b 510 -247 139 -178 142 -272 l 510 -244 b 406 -79 431 -222 406 -172 z "},"|":{"ha":386,"x_min":0,"x_max":0,"o":"m 110 1042 l 110 -347 l 275 -347 l 275 1042 z "},"}":{"ha":540,"x_min":0,"x_max":0,"o":"m 401 229 b 506 392 401 324 426 371 l 506 394 b 401 558 419 418 401 461 l 401 803 b 31 1026 401 957 399 1051 l 31 1024 b 135 858 110 1001 135 951 l 135 600 b 249 394 135 465 160 418 l 249 392 b 135 203 154 369 135 307 l 135 -76 b 31 -244 135 -174 113 -218 l 31 -247 b 401 -49 363 -262 401 -221 z "},"~":{"ha":917,"x_min":0,"x_max":0,"o":"m 719 499 b 607 396 692 457 665 396 b 475 442 575 396 526 419 b 315 488 422 465 367 488 b 108 315 214 488 151 394 l 197 213 b 318 326 225 260 253 326 b 449 281 361 326 403 304 b 608 235 494 257 547 235 b 808 397 711 235 761 322 z "},"¡":{"ha":463,"x_min":0,"x_max":0,"o":"m 379 -268 l 379 -33 l 310 361 l 154 361 l 83 -33 l 83 -268 z m 375 458 l 375 728 l 88 728 l 88 458 z "},"¢":{"ha":926,"x_min":0,"x_max":0,"o":"m 369 211 b 328 371 338 256 328 317 b 463 561 328 481 371 561 b 522 549 483 561 503 557 z m 419 -21 b 872 285 696 -25 844 63 l 596 285 b 485 167 588 217 550 179 l 456 167 l 585 456 l 863 456 b 726 688 849 553 811 632 l 822 910 l 638 910 l 567 740 b 468 749 533 744 500 749 b 49 358 243 749 49 639 b 251 21 49 215 119 81 l 156 -204 l 343 -204 z "},"£":{"ha":926,"x_min":0,"x_max":0,"o":"m 161 -1 b 338 63 225 36 260 63 b 506 19 393 63 429 47 b 679 -17 568 -4 618 -17 b 894 79 744 -17 847 32 l 783 311 b 651 247 747 278 704 247 b 522 275 607 247 569 265 b 411 289 475 285 443 289 b 350 282 390 289 364 282 l 363 292 b 450 443 410 328 442 386 l 578 443 l 578 568 l 433 568 l 422 590 b 381 679 407 618 390 649 b 485 792 365 747 421 792 b 581 757 529 792 560 779 b 613 658 601 735 611 701 l 876 658 b 475 1010 871 911 710 1010 b 82 711 283 1010 82 935 b 129 568 82 669 108 604 l 46 568 l 46 443 l 169 443 b 49 219 185 333 135 276 z "},"⁄":{"ha":232,"x_min":0,"x_max":0,"o":"m -96 -21 l 464 993 l 328 993 l -232 -21 z "},"¥":{"ha":926,"x_min":0,"x_max":0,"o":"m 467 661 l 319 1000 l -1 1000 l 169 667 l -1 667 l -1 535 l 239 535 l 307 403 l -1 403 l -1 271 l 318 271 l 318 0 l 607 0 l 607 271 l 928 271 l 928 403 l 619 403 l 688 535 l 928 535 l 928 667 l 758 667 l 928 1000 l 613 1000 z "},"ƒ":{"ha":926,"x_min":0,"x_max":0,"o":"m 864 1014 b 704 1038 811 1025 758 1038 b 593 1024 665 1038 631 1036 b 379 647 425 964 407 800 l 204 647 l 204 486 l 353 486 l 276 39 b 161 -71 265 -25 229 -74 b 97 -53 139 -65 117 -64 l 67 -229 b 232 -256 121 -240 176 -256 b 328 -242 250 -256 311 -247 b 425 -186 372 -226 389 -217 b 518 -44 469 -147 501 -101 b 558 133 535 15 549 74 l 619 486 l 799 486 l 799 647 l 646 647 l 671 779 b 756 851 681 836 697 851 b 835 838 782 851 808 844 z "},"§":{"ha":926,"x_min":0,"x_max":0,"o":"m 360 361 b 296 432 321 379 296 396 b 371 507 296 469 335 496 l 585 411 b 629 349 610 400 629 383 b 554 276 629 314 590 282 z m 774 761 b 769 789 774 771 772 781 b 468 1026 750 951 622 1026 b 150 790 311 1026 150 961 b 244 597 150 719 176 653 b 101 397 167 569 101 497 b 565 -10 101 56 565 132 b 463 -76 565 -64 522 -76 b 388 -46 429 -76 404 -65 b 360 31 371 -26 363 0 l 144 31 b 472 -237 151 -161 299 -237 b 785 0 640 -237 785 -140 b 688 186 785 78 749 139 b 824 392 768 222 824 288 b 369 803 824 717 369 660 b 463 865 369 849 421 865 b 556 761 531 865 553 824 z "},"¤":{"ha":917,"x_min":0,"x_max":0,"o":"m 106 190 l 215 81 l 276 142 b 463 88 332 106 396 88 b 642 142 526 88 586 108 l 703 81 l 810 190 l 749 251 b 801 431 785 303 801 368 b 749 611 801 497 783 556 l 810 671 l 703 782 l 642 721 b 456 774 586 756 521 774 b 276 721 394 774 329 753 l 215 782 l 106 671 l 167 611 b 115 429 132 554 115 497 b 167 251 115 358 133 311 z m 458 260 b 288 431 361 260 288 340 b 458 601 288 521 361 601 b 629 431 556 601 629 521 b 458 260 629 340 556 260 z "},"'":{"ha":386,"x_min":0,"x_max":0,"o":"m 275 624 l 275 1000 l 110 1000 l 110 624 z "},"“":{"ha":694,"x_min":0,"x_max":0,"o":"m 654 1026 b 400 744 519 1029 394 915 l 400 525 l 654 525 l 654 779 l 543 779 b 569 872 543 819 551 850 b 654 914 588 894 615 908 z m 311 1026 b 57 744 176 1029 51 915 l 57 525 l 311 525 l 311 779 l 200 779 b 226 872 200 819 208 850 b 311 914 244 894 272 908 z "},"«":{"ha":926,"x_min":0,"x_max":0,"o":"m 421 89 l 421 268 l 281 350 l 421 440 l 421 622 l 167 456 l 167 253 z m 760 89 l 760 268 l 619 350 l 760 440 l 760 622 l 506 456 l 506 253 z "},"‹":{"ha":463,"x_min":0,"x_max":0,"o":"m 358 89 l 358 268 l 218 350 l 358 440 l 358 622 l 104 456 l 104 253 z "},"›":{"ha":463,"x_min":0,"x_max":0,"o":"m 104 622 l 104 443 l 244 361 l 104 271 l 104 89 l 358 256 l 358 458 z "},"ﬁ":{"ha":926,"x_min":0,"x_max":0,"o":"m 575 728 l 575 0 l 864 0 l 864 728 z m 864 1026 l 575 1026 l 575 821 l 864 821 z m 108 561 l 108 0 l 397 0 l 397 561 l 518 561 l 518 728 l 397 728 b 518 844 390 844 424 844 l 518 1026 l 394 1026 b 110 728 210 1026 110 985 l 13 728 l 13 561 z "},"ﬂ":{"ha":926,"x_min":0,"x_max":0,"o":"m 575 1000 l 575 0 l 864 0 l 864 1000 z m 397 728 b 518 844 390 844 424 844 l 518 1026 l 394 1026 b 110 728 210 1026 110 985 l 13 728 l 13 561 l 108 561 l 108 0 l 397 0 l 397 561 l 518 561 l 518 728 z "},"–":{"ha":694,"x_min":0,"x_max":0,"o":"m 694 260 l 694 451 l 0 451 l 0 260 z "},"†":{"ha":926,"x_min":0,"x_max":0,"o":"m 322 714 l 114 714 l 114 494 l 322 494 l 322 -247 l 603 -247 l 603 494 l 811 494 l 811 714 l 603 714 l 603 1000 l 322 1000 z "},"‡":{"ha":926,"x_min":0,"x_max":0,"o":"m 114 750 l 114 531 l 322 531 l 322 228 l 114 228 l 114 8 l 322 8 l 322 -247 l 589 -247 l 589 8 l 811 8 l 811 228 l 589 228 l 589 531 l 811 531 l 811 750 l 589 750 l 589 1000 l 322 1000 l 322 750 z "},"·":{"ha":463,"x_min":0,"x_max":0,"o":"m 231 175 b 411 356 329 175 411 257 b 231 536 411 454 329 536 b 50 356 132 536 50 454 b 231 175 50 257 132 175 z "},"¶":{"ha":1181,"x_min":0,"x_max":0,"o":"m 569 772 l 685 772 l 685 -247 l 913 -247 l 913 772 l 982 772 l 982 1000 l 415 1000 b 75 753 222 1000 75 953 b 342 515 75 604 182 515 l 342 -247 l 569 -247 z "},"•":{"ha":694,"x_min":0,"x_max":0,"o":"m 581 501 b 346 735 581 631 475 735 b 113 501 217 735 113 631 b 346 267 113 372 217 267 b 581 501 475 267 581 372 z "},"‚":{"ha":386,"x_min":0,"x_max":0,"o":"m 58 -247 b 313 35 194 -250 319 -136 l 313 254 l 58 254 l 58 0 l 169 0 b 143 -92 169 -39 160 -69 b 58 -135 126 -114 99 -128 z "},"„":{"ha":694,"x_min":0,"x_max":0,"o":"m 383 -247 b 638 35 519 -250 644 -136 l 638 254 l 383 254 l 383 0 l 494 0 b 468 -92 494 -39 485 -69 b 383 -135 451 -114 424 -128 z m 40 -247 b 294 35 176 -250 301 -136 l 294 254 l 40 254 l 40 0 l 151 0 b 125 -92 151 -39 142 -69 b 40 -135 108 -114 81 -128 z "},"”":{"ha":694,"x_min":0,"x_max":0,"o":"m 383 499 b 638 781 519 497 644 611 l 638 1000 l 383 1000 l 383 746 l 494 746 b 468 654 494 707 485 676 b 383 611 451 632 424 618 z m 40 499 b 294 781 176 497 301 611 l 294 1000 l 40 1000 l 40 746 l 151 746 b 125 654 151 707 142 676 b 40 611 108 632 81 618 z "},"»":{"ha":926,"x_min":0,"x_max":0,"o":"m 506 622 l 506 443 l 646 361 l 506 271 l 506 89 l 760 256 l 760 458 z m 167 622 l 167 443 l 307 361 l 167 271 l 167 89 l 421 256 l 421 458 z "},"…":{"ha":1389,"x_min":0,"x_max":0,"o":"m 379 0 l 379 286 l 85 286 l 85 0 z m 1304 0 l 1304 286 l 1010 286 l 1010 0 z m 842 0 l 842 286 l 547 286 l 547 0 z "},"‰":{"ha":1389,"x_min":0,"x_max":0,"o":"m 651 253 b 717 188 686 253 717 221 b 651 122 717 154 686 122 b 585 188 618 122 585 153 b 651 253 585 222 618 253 z m 651 419 b 418 188 528 419 418 314 b 647 -44 418 64 522 -44 b 883 188 778 -44 883 58 b 651 419 883 314 778 419 z m 1167 419 b 933 188 1043 419 933 314 b 1163 -44 933 64 1038 -44 b 1399 188 1293 -44 1399 58 b 1167 419 1399 314 1293 419 z m 1167 253 b 1232 188 1201 253 1232 221 b 1167 122 1232 154 1201 122 b 1100 188 1133 122 1100 153 b 1167 253 1100 222 1133 253 z m 224 1043 b -10 811 100 1043 -10 938 b 219 579 -10 688 94 579 b 456 811 350 579 456 682 b 224 1043 456 938 350 1043 z m 224 876 b 289 811 258 876 289 844 b 224 746 289 778 258 746 b 157 811 190 746 157 776 b 224 876 157 846 190 876 z m 668 1025 l 85 -28 l 203 -28 l 786 1025 z "},"¿":{"ha":849,"x_min":0,"x_max":0,"o":"m 311 353 b 42 -17 339 175 42 225 b 417 -300 42 -204 204 -300 b 811 24 622 -300 800 -199 l 524 24 b 433 -92 525 -47 500 -92 b 331 -11 382 -92 331 -69 b 567 353 333 128 589 29 z m 581 457 l 581 728 l 294 728 l 294 457 z "},"`":{"ha":463,"x_min":0,"x_max":0,"o":"m -50 1025 l 188 819 l 378 819 l 239 1025 z "},"´":{"ha":463,"x_min":0,"x_max":0,"o":"m 92 819 l 282 819 l 521 1025 l 231 1025 z "},"ˆ":{"ha":463,"x_min":0,"x_max":0,"o":"m -47 819 l 157 819 l 235 925 l 313 819 l 518 819 l 349 1025 l 121 1025 z "},"˜":{"ha":463,"x_min":0,"x_max":0,"o":"m 396 1013 b 307 967 392 985 360 950 b 133 1015 242 988 203 1015 b -37 819 28 1015 -26 911 l 72 819 b 199 861 86 861 100 904 b 333 828 240 843 288 828 b 507 1013 444 828 493 914 z "},"¯":{"ha":463,"x_min":0,"x_max":0,"o":"m 497 860 l 497 985 l -26 985 l -26 860 z "},"˘":{"ha":463,"x_min":0,"x_max":0,"o":"m -17 1032 b 233 819 -6 878 88 819 b 488 1032 367 819 482 889 l 379 1032 b 242 946 369 972 328 946 b 93 1032 178 946 103 954 z "},"˙":{"ha":463,"x_min":0,"x_max":0,"o":"m 349 828 l 349 1008 l 114 1008 l 114 828 z "},"¨":{"ha":463,"x_min":0,"x_max":0,"o":"m 276 828 l 511 828 l 511 1008 l 276 1008 z m 194 828 l 194 1008 l -40 1008 l -40 828 z "},"˚":{"ha":463,"x_min":0,"x_max":0,"o":"m 232 824 b 388 979 317 824 388 894 b 232 1135 388 1064 317 1135 b 75 979 147 1135 75 1065 b 232 824 75 893 147 824 z m 232 1051 b 304 979 271 1051 304 1017 b 232 907 304 942 271 907 b 158 979 193 907 158 940 b 232 1051 158 1018 193 1051 z "},"¸":{"ha":463,"x_min":0,"x_max":0,"o":"m 39 -283 b 221 -322 100 -306 156 -322 b 394 -214 292 -322 374 -287 b 296 -86 414 -147 354 -92 b 213 -89 279 -85 243 -76 l 267 0 l 186 0 l 110 -128 l 144 -161 b 242 -232 240 -115 288 -199 b 186 -247 225 -244 206 -247 b 68 -219 144 -247 107 -229 z "},"˝":{"ha":463,"x_min":0,"x_max":0,"o":"m 92 819 l 282 819 l 521 1025 l 231 1025 z m 442 819 l 632 819 l 871 1025 l 581 1025 z "},"˛":{"ha":463,"x_min":0,"x_max":0,"o":"m 217 0 b 101 -147 167 -35 101 -81 b 263 -285 101 -242 178 -285 b 386 -264 306 -285 346 -278 l 386 -144 b 319 -161 363 -153 344 -161 b 254 -93 285 -161 254 -128 b 332 -3 254 -51 299 -18 l 332 0 z "},"ˇ":{"ha":463,"x_min":0,"x_max":0,"o":"m 313 1025 l 235 921 l 157 1025 l -47 1025 l 121 819 l 349 819 l 518 1025 z "},"—":{"ha":1389,"x_min":0,"x_max":0,"o":"m 1389 260 l 1389 451 l 0 451 l 0 260 z "},"Æ":{"ha":1389,"x_min":0,"x_max":0,"o":"m 549 767 l 638 767 l 638 353 l 429 353 z m 638 0 l 1363 0 l 1363 233 l 938 233 l 938 390 l 1272 390 l 1272 624 l 938 624 l 938 767 l 1343 767 l 1343 1000 l 338 1000 l 4 0 l 325 0 l 368 144 l 638 144 z "},"ª":{"ha":556,"x_min":0,"x_max":0,"o":"m 553 578 l 553 590 b 528 642 535 601 528 613 l 528 846 b 290 1026 528 950 514 1026 b 92 988 197 1026 133 1013 b 32 881 50 963 32 926 l 213 881 b 279 922 218 918 253 922 b 340 888 299 922 340 918 b 3 697 340 806 3 896 b 172 565 3 606 83 565 b 350 625 243 565 297 579 l 360 578 z m 257 664 b 190 700 219 664 190 679 b 340 771 190 750 299 753 b 257 664 344 711 324 664 z "},"Ł":{"ha":926,"x_min":0,"x_max":0,"o":"m 871 0 l 871 233 l 433 233 l 433 535 l 567 604 l 567 792 l 433 722 l 433 1000 l 106 1000 l 106 625 l -28 556 l -28 368 l 106 438 l 106 0 z "},"Ø":{"ha":1157,"x_min":0,"x_max":0,"o":"m 403 353 b 382 506 383 401 382 456 b 575 782 382 632 426 782 b 688 744 622 782 658 769 z m 758 633 b 775 506 774 590 775 543 b 578 218 775 340 708 218 b 476 249 536 218 503 231 z m 1042 1018 l 938 1089 l 846 963 b 578 1026 767 1004 675 1026 b 54 508 267 1026 54 822 b 217 99 54 313 118 185 l 117 -39 l 218 -106 l 317 31 b 578 -26 378 -3 458 -26 b 1103 506 876 -26 1103 164 b 947 890 1103 657 1038 813 z "},"Œ":{"ha":1389,"x_min":0,"x_max":0,"o":"m 676 0 l 1363 0 l 1363 233 l 938 233 l 938 390 l 1274 390 l 1274 624 l 939 624 l 939 767 l 1344 767 l 1344 1000 l 678 1000 l 678 908 b 428 1026 624 993 525 1026 b 8 511 211 1026 8 860 b 424 -26 8 150 169 -26 b 676 89 519 -26 618 10 z m 485 782 b 650 522 613 782 650 661 b 479 218 650 403 638 218 b 314 474 367 218 314 317 b 485 782 314 589 331 782 z "},"º":{"ha":556,"x_min":0,"x_max":0,"o":"m 279 910 b 360 800 328 913 360 864 b 278 682 360 718 328 682 b 196 800 231 682 196 718 b 279 910 196 850 215 910 z m 8 792 b 278 565 8 642 126 565 b 547 800 429 565 547 640 b 276 1026 547 936 444 1026 b 8 792 117 1026 8 943 z "},"æ":{"ha":1389,"x_min":0,"x_max":0,"o":"m 436 286 b 564 325 481 296 524 304 b 422 143 572 208 535 143 b 342 211 382 143 342 165 b 436 286 342 264 396 278 z m 803 446 b 929 572 810 514 847 572 b 1053 446 1008 572 1051 514 z m 394 440 b 53 203 239 422 53 392 b 357 -21 53 44 175 -21 b 671 79 453 -21 571 6 b 911 -21 713 26 796 -21 b 1165 31 1014 -21 1099 -6 b 1307 217 1232 68 1279 128 l 1044 217 b 931 156 1031 181 1004 156 b 804 299 843 156 801 218 l 1328 299 b 950 749 1342 525 1215 749 b 717 669 868 749 779 726 b 443 749 644 732 536 749 b 90 503 265 749 99 671 l 361 503 b 458 572 369 569 426 572 b 567 511 522 572 567 567 b 465 449 567 471 513 456 z "},"ı":{"ha":463,"x_min":0,"x_max":0,"o":"m 375 0 l 375 728 l 86 728 l 86 0 z "},"ł":{"ha":463,"x_min":0,"x_max":0,"o":"m 375 514 l 463 597 l 463 778 l 375 694 l 375 1000 l 86 1000 l 86 583 l -1 500 l -1 319 l 86 403 l 86 0 l 375 0 z "},"ø":{"ha":926,"x_min":0,"x_max":0,"o":"m 353 260 b 338 371 342 296 338 336 b 463 554 338 450 365 554 b 526 535 485 554 508 549 z m 574 456 b 588 371 581 431 588 400 b 463 174 588 240 543 174 b 407 190 443 174 425 179 z m 768 761 l 699 807 l 642 718 b 461 749 596 735 535 749 b 49 356 215 749 49 608 b 217 42 49 204 114 99 l 151 -61 l 222 -100 l 290 7 b 463 -21 343 -12 401 -21 b 876 371 694 -21 876 106 b 717 681 876 553 778 643 z "},"œ":{"ha":1389,"x_min":0,"x_max":0,"o":"m 807 446 b 956 572 811 521 858 572 b 1099 446 1042 572 1097 521 z m 1333 299 b 956 749 1347 525 1221 749 b 696 669 874 749 785 726 b 432 749 625 719 528 749 b 49 357 229 749 49 629 b 431 -21 49 131 188 -21 b 693 79 557 -21 647 24 b 946 -21 763 26 836 -21 b 1168 32 1021 -21 1101 -6 b 1313 217 1236 69 1290 129 l 1050 217 b 936 156 1043 178 996 156 b 807 299 849 156 807 218 z m 461 554 b 579 363 553 554 579 476 b 463 174 579 281 569 174 b 338 357 350 174 338 267 b 461 554 338 443 353 554 z "},"ß":{"ha":926,"x_min":0,"x_max":0,"o":"m 432 469 b 582 314 543 472 582 418 b 429 171 582 207 546 151 l 429 -8 b 549 -21 469 -17 508 -21 b 871 300 721 -21 871 90 b 689 569 871 440 821 519 b 813 767 772 608 813 674 b 450 1026 813 938 658 1026 b 67 679 214 1026 67 931 l 67 0 l 356 0 l 356 689 b 447 832 356 763 354 832 b 542 728 513 832 542 786 b 432 628 542 657 501 626 z "},"¹":{"ha":556,"x_min":0,"x_max":0,"o":"m 446 1026 l 303 1026 b 111 892 282 925 210 893 l 111 774 l 258 774 l 258 431 l 446 431 z "},"¬":{"ha":917,"x_min":0,"x_max":0,"o":"m 647 167 l 808 167 l 808 572 l 108 572 l 108 411 l 647 411 z "},"µ":{"ha":926,"x_min":0,"x_max":0,"o":"m 858 0 l 858 728 l 569 728 l 569 378 b 460 203 569 265 543 203 b 356 335 390 203 356 235 l 356 728 l 67 728 l 67 -247 l 356 -247 l 356 -17 b 590 107 447 -21 518 7 l 590 0 z "},"™":{"ha":1319,"x_min":0,"x_max":0,"o":"m 1231 1000 l 1033 1000 l 907 668 l 781 1000 l 583 1000 l 583 439 l 706 439 l 706 892 l 708 892 l 871 439 l 943 439 l 1106 892 l 1108 892 l 1108 439 l 1231 439 z m 515 1000 l 39 1000 l 39 892 l 210 892 l 210 439 l 344 439 l 344 892 l 515 892 z "},"Ð":{"ha":1081,"x_min":0,"x_max":0,"o":"m 418 767 l 481 767 b 724 503 656 767 724 711 b 488 233 724 314 640 233 l 418 233 l 418 388 l 564 388 l 564 663 l 418 663 z m 90 663 l 0 663 l 0 388 l 90 388 l 90 0 l 521 0 b 1051 521 842 0 1051 144 b 529 1000 1051 850 851 1000 l 90 1000 z "},"½":{"ha":1389,"x_min":0,"x_max":0,"o":"m 390 1026 l 247 1026 b 56 892 226 925 154 893 l 56 774 l 203 774 l 203 431 l 390 431 z m 1036 142 b 1164 213 1069 164 1118 186 b 1333 406 1247 260 1333 303 b 1078 596 1333 543 1210 596 b 808 353 913 596 811 526 l 976 353 b 1069 465 976 410 997 465 b 1146 407 1107 465 1146 444 b 872 167 1146 310 979 269 b 796 0 821 118 793 68 l 1332 0 l 1332 142 z m 404 -21 l 964 993 l 828 993 l 268 -21 z "},"±":{"ha":917,"x_min":0,"x_max":0,"o":"m 378 614 l 108 614 l 108 453 l 378 453 l 378 219 l 539 219 l 539 453 l 808 453 l 808 614 l 539 614 l 539 838 l 378 838 z m 108 0 l 808 0 l 808 161 l 108 161 z "},"Þ":{"ha":1003,"x_min":0,"x_max":0,"o":"m 407 406 l 407 628 l 500 628 b 675 522 569 628 675 615 b 543 406 675 436 619 406 z m 407 0 l 407 172 l 572 172 b 988 524 860 172 988 308 b 561 861 988 729 849 861 l 407 861 l 407 1000 l 79 1000 l 79 0 z "},"¼":{"ha":1389,"x_min":0,"x_max":0,"o":"m 782 122 l 1075 122 l 1075 0 l 1254 0 l 1254 122 l 1333 122 l 1333 251 l 1254 251 l 1254 588 l 1079 588 l 782 261 z m 1075 431 l 1075 251 l 924 251 z m 390 1026 l 247 1026 b 56 892 226 925 154 893 l 56 774 l 203 774 l 203 431 l 390 431 z m 460 -21 l 1019 993 l 883 993 l 324 -21 z "},"÷":{"ha":917,"x_min":0,"x_max":0,"o":"m 808 275 l 808 436 l 108 436 l 108 275 z m 539 10 l 539 171 l 378 171 l 378 10 z m 539 540 l 539 701 l 378 701 l 378 540 z "},"¦":{"ha":386,"x_min":0,"x_max":0,"o":"m 110 938 l 110 451 l 275 451 l 275 938 z m 110 243 l 110 -243 l 275 -243 l 275 243 z "},"°":{"ha":556,"x_min":0,"x_max":0,"o":"m 486 785 b 278 993 486 899 392 993 b 69 785 163 993 68 899 b 278 576 69 669 163 576 b 486 785 392 576 486 669 z m 376 781 b 276 686 376 722 332 686 b 179 781 219 686 181 722 b 275 883 178 836 219 883 b 376 781 332 883 376 836 z "},"þ":{"ha":926,"x_min":0,"x_max":0,"o":"m 61 1026 l 61 -247 l 350 -247 l 350 72 b 536 -21 399 11 457 -21 b 876 369 699 -21 876 83 b 551 749 876 569 771 749 b 324 619 468 749 364 708 l 321 619 l 321 1026 z m 463 200 b 344 371 388 200 344 269 b 461 535 344 468 392 535 b 588 365 538 535 588 481 b 463 200 588 265 539 200 z "},"¾":{"ha":1389,"x_min":0,"x_max":0,"o":"m 782 122 l 1075 122 l 1075 0 l 1254 0 l 1254 122 l 1333 122 l 1333 251 l 1254 251 l 1254 588 l 1079 588 l 782 261 z m 1075 431 l 1075 251 l 924 251 z m 515 -21 l 1075 993 l 939 993 l 379 -21 z m 56 601 b 314 385 54 456 165 385 b 596 590 485 385 596 454 b 504 713 596 649 561 692 b 578 829 556 736 578 775 b 333 993 578 929 485 993 b 76 800 200 993 82 936 l 246 800 b 328 863 251 842 283 863 b 401 811 365 863 401 849 b 290 750 401 756 335 747 l 290 649 b 407 583 335 649 407 650 b 324 515 407 549 379 515 b 256 538 294 515 271 524 b 233 601 240 553 232 575 z "},"²":{"ha":556,"x_min":0,"x_max":0,"o":"m 250 572 b 378 643 283 594 332 617 b 547 836 461 690 547 733 b 292 1026 547 974 424 1026 b 22 783 126 1026 25 957 l 190 783 b 283 896 190 840 211 896 b 360 838 321 896 360 875 b 86 597 360 740 193 700 b 10 431 35 549 7 499 l 546 431 l 546 572 z "},"®":{"ha":1111,"x_min":0,"x_max":0,"o":"m 556 -26 b 1082 500 846 -26 1082 210 b 556 1026 1082 790 846 1026 b 29 500 263 1026 29 790 b 556 -26 29 210 263 -26 z m 556 99 b 168 500 326 99 168 265 b 556 901 168 735 326 901 b 943 500 781 901 943 735 b 556 99 943 265 781 99 z m 679 454 b 835 608 779 461 835 503 b 614 782 835 742 763 782 l 339 782 l 339 214 l 458 214 l 458 454 l 553 454 l 679 214 l 817 214 z m 458 539 l 458 694 l 588 694 b 724 624 642 694 724 700 b 615 539 724 553 679 538 z "},"−":{"ha":917,"x_min":0,"x_max":0,"o":"m 108 275 l 808 275 l 808 436 l 108 436 z "},"ð":{"ha":926,"x_min":0,"x_max":0,"o":"m 465 554 b 588 371 540 558 588 478 b 463 174 588 233 540 174 b 338 371 389 174 338 233 b 465 554 338 453 367 554 z m 510 821 b 558 692 531 788 549 746 b 390 736 503 722 446 736 b 49 356 200 736 49 589 b 463 -21 49 107 229 -21 b 876 371 696 -21 876 104 b 682 894 876 582 788 767 l 775 933 l 708 1008 l 614 968 b 544 1026 590 992 567 1011 l 374 954 b 447 897 399 938 424 919 l 349 856 l 408 778 z "},"×":{"ha":917,"x_min":0,"x_max":0,"o":"m 458 239 l 693 4 l 807 117 l 571 353 l 807 588 l 693 701 l 458 465 l 222 701 l 110 588 l 346 351 l 110 115 l 222 4 z "},"³":{"ha":556,"x_min":0,"x_max":0,"o":"m 8 635 b 267 418 7 489 118 418 b 549 624 438 418 549 488 b 457 746 549 682 514 725 b 531 863 508 769 531 808 b 286 1026 531 963 438 1026 b 29 833 153 1026 35 969 l 199 833 b 281 896 204 875 236 896 b 354 844 318 896 354 882 b 243 783 354 789 288 781 l 243 682 b 360 617 288 682 360 683 b 276 549 360 582 332 549 b 208 571 247 549 224 557 b 186 635 193 586 185 608 z "},"©":{"ha":1111,"x_min":0,"x_max":0,"o":"m 556 -26 b 1082 500 847 -26 1082 208 b 556 1026 1082 792 847 1026 b 29 500 263 1026 29 792 b 556 -26 29 208 263 -26 z m 556 99 b 168 500 326 99 168 265 b 556 901 168 735 326 901 b 943 500 781 901 943 735 b 556 99 943 265 781 99 z m 824 610 b 575 808 801 733 701 808 b 286 504 396 808 286 679 b 578 201 286 335 401 201 b 824 406 700 201 808 278 l 704 406 b 578 303 700 342 640 303 b 418 507 476 303 418 407 b 574 706 418 613 469 706 b 704 610 639 706 693 674 z "},"Á":{"ha":1081,"x_min":0,"x_max":0,"o":"m 643 340 l 436 340 l 538 699 z m 336 0 l 374 132 l 700 132 l 739 0 l 1065 0 l 707 1000 l 374 1000 l 15 0 z m 401 1092 l 592 1092 l 831 1297 l 540 1297 z "},"Â":{"ha":1081,"x_min":0,"x_max":0,"o":"m 643 340 l 436 340 l 538 699 z m 336 0 l 374 132 l 700 132 l 739 0 l 1065 0 l 707 1000 l 374 1000 l 15 0 z m 263 1092 l 467 1092 l 544 1197 l 622 1092 l 828 1092 l 658 1297 l 431 1297 z "},"Ä":{"ha":1081,"x_min":0,"x_max":0,"o":"m 643 340 l 436 340 l 538 699 z m 336 0 l 374 132 l 700 132 l 739 0 l 1065 0 l 707 1000 l 374 1000 l 15 0 z m 586 1100 l 821 1100 l 821 1281 l 586 1281 z m 504 1100 l 504 1281 l 269 1281 l 269 1100 z "},"À":{"ha":1081,"x_min":0,"x_max":0,"o":"m 643 340 l 436 340 l 538 699 z m 336 0 l 374 132 l 700 132 l 739 0 l 1065 0 l 707 1000 l 374 1000 l 15 0 z m 260 1297 l 497 1092 l 688 1092 l 549 1297 z "},"Å":{"ha":1081,"x_min":0,"x_max":0,"o":"m 643 340 l 436 340 l 538 699 z m 336 0 l 374 132 l 700 132 l 739 0 l 1065 0 l 707 1000 l 374 1000 l 15 0 z m 542 1096 b 697 1251 626 1096 697 1167 b 542 1407 697 1336 626 1407 b 385 1251 457 1407 385 1338 b 542 1096 385 1165 457 1096 z m 542 1324 b 614 1251 581 1324 614 1289 b 542 1179 614 1214 581 1179 b 468 1251 503 1179 468 1213 b 542 1324 468 1290 503 1324 z "},"Ã":{"ha":1081,"x_min":0,"x_max":0,"o":"m 643 340 l 436 340 l 538 699 z m 336 0 l 374 132 l 700 132 l 739 0 l 1065 0 l 707 1000 l 374 1000 l 15 0 z m 706 1285 b 617 1239 701 1257 669 1222 b 443 1288 551 1260 513 1288 b 272 1092 338 1288 283 1183 l 382 1092 b 508 1133 396 1133 410 1176 b 643 1100 550 1115 597 1100 b 817 1285 754 1100 803 1186 z "},"Ç":{"ha":1081,"x_min":0,"x_max":0,"o":"m 1032 618 b 529 1026 1006 875 835 1026 b 31 501 250 1026 31 825 b 483 -21 31 203 200 7 l 419 -128 l 454 -161 b 551 -232 550 -115 597 -199 b 496 -247 535 -244 515 -247 b 378 -219 454 -247 417 -229 l 349 -283 b 531 -322 410 -306 465 -322 b 704 -214 601 -322 683 -287 b 606 -86 724 -147 664 -92 b 522 -89 589 -85 553 -76 l 560 -26 l 561 -26 b 1039 388 825 -26 1010 129 l 724 388 b 556 218 711 292 661 218 b 358 490 389 218 358 350 b 543 782 358 683 428 782 b 721 618 646 782 711 722 z "},"É":{"ha":1003,"x_min":0,"x_max":0,"o":"m 940 0 l 940 233 l 433 233 l 433 390 l 846 390 l 846 624 l 433 624 l 433 767 l 921 767 l 921 1000 l 106 1000 l 106 0 z m 363 1092 l 553 1092 l 792 1297 l 501 1297 z "},"Ê":{"ha":1003,"x_min":0,"x_max":0,"o":"m 940 0 l 940 233 l 433 233 l 433 390 l 846 390 l 846 624 l 433 624 l 433 767 l 921 767 l 921 1000 l 106 1000 l 106 0 z m 224 1092 l 428 1092 l 506 1197 l 583 1092 l 789 1092 l 619 1297 l 392 1297 z "},"Ë":{"ha":1003,"x_min":0,"x_max":0,"o":"m 940 0 l 940 233 l 433 233 l 433 390 l 846 390 l 846 624 l 433 624 l 433 767 l 921 767 l 921 1000 l 106 1000 l 106 0 z m 547 1100 l 782 1100 l 782 1281 l 547 1281 z m 465 1100 l 465 1281 l 231 1281 l 231 1100 z "},"È":{"ha":1003,"x_min":0,"x_max":0,"o":"m 940 0 l 940 233 l 433 233 l 433 390 l 846 390 l 846 624 l 433 624 l 433 767 l 921 767 l 921 1000 l 106 1000 l 106 0 z m 221 1297 l 458 1092 l 649 1092 l 510 1297 z "},"Í":{"ha":540,"x_min":0,"x_max":0,"o":"m 433 0 l 433 1000 l 106 1000 l 106 0 z m 131 1092 l 321 1092 l 560 1297 l 269 1297 z "},"Î":{"ha":540,"x_min":0,"x_max":0,"o":"m 433 0 l 433 1000 l 106 1000 l 106 0 z m -8 1092 l 196 1092 l 274 1197 l 351 1092 l 557 1092 l 388 1297 l 160 1297 z "},"Ï":{"ha":540,"x_min":0,"x_max":0,"o":"m 433 0 l 433 1000 l 106 1000 l 106 0 z m 315 1100 l 550 1100 l 550 1281 l 315 1281 z m 233 1100 l 233 1281 l -1 1281 l -1 1100 z "},"Ì":{"ha":540,"x_min":0,"x_max":0,"o":"m 433 0 l 433 1000 l 106 1000 l 106 0 z m -11 1297 l 226 1092 l 417 1092 l 278 1297 z "},"Ñ":{"ha":1157,"x_min":0,"x_max":0,"o":"m 403 1000 l 96 1000 l 96 0 l 410 0 l 410 317 l 397 544 l 754 0 l 1061 0 l 1061 1000 l 747 1000 l 747 682 l 760 454 z m 743 1285 b 654 1239 739 1257 707 1222 b 481 1288 589 1260 550 1288 b 310 1092 375 1288 321 1183 l 419 1092 b 546 1133 433 1133 447 1176 b 681 1100 588 1115 635 1100 b 854 1285 792 1100 840 1186 z "},"Ó":{"ha":1157,"x_min":0,"x_max":0,"o":"m 575 782 b 775 506 719 786 775 642 b 578 218 775 340 719 218 b 382 506 421 218 382 378 b 575 782 382 632 426 782 z m 578 1026 b 54 508 267 1026 54 822 b 578 -26 54 168 264 -26 b 1103 506 874 -26 1103 165 b 578 1026 1103 769 935 1026 z m 439 1092 l 629 1092 l 868 1297 l 578 1297 z "},"Ô":{"ha":1157,"x_min":0,"x_max":0,"o":"m 575 782 b 775 506 719 786 775 642 b 578 218 775 340 719 218 b 382 506 421 218 382 378 b 575 782 382 632 426 782 z m 578 1026 b 54 508 267 1026 54 822 b 578 -26 54 168 264 -26 b 1103 506 874 -26 1103 165 b 578 1026 1103 769 935 1026 z m 300 1092 l 504 1092 l 582 1197 l 660 1092 l 865 1092 l 696 1297 l 468 1297 z "},"Ö":{"ha":1157,"x_min":0,"x_max":0,"o":"m 575 782 b 775 506 719 786 775 642 b 578 218 775 340 719 218 b 382 506 421 218 382 378 b 575 782 382 632 426 782 z m 578 1026 b 54 508 267 1026 54 822 b 578 -26 54 168 264 -26 b 1103 506 874 -26 1103 165 b 578 1026 1103 769 935 1026 z m 624 1100 l 858 1100 l 858 1281 l 624 1281 z m 542 1100 l 542 1281 l 307 1281 l 307 1100 z "},"Ò":{"ha":1157,"x_min":0,"x_max":0,"o":"m 575 782 b 775 506 719 786 775 642 b 578 218 775 340 719 218 b 382 506 421 218 382 378 b 575 782 382 632 426 782 z m 578 1026 b 54 508 267 1026 54 822 b 578 -26 54 168 264 -26 b 1103 506 874 -26 1103 165 b 578 1026 1103 769 935 1026 z m 297 1297 l 535 1092 l 725 1092 l 586 1297 z "},"Õ":{"ha":1157,"x_min":0,"x_max":0,"o":"m 575 782 b 775 506 719 786 775 642 b 578 218 775 340 719 218 b 382 506 421 218 382 378 b 575 782 382 632 426 782 z m 578 1026 b 54 508 267 1026 54 822 b 578 -26 54 168 264 -26 b 1103 506 874 -26 1103 165 b 578 1026 1103 769 935 1026 z m 743 1285 b 654 1239 739 1257 707 1222 b 481 1288 589 1260 550 1288 b 310 1092 375 1288 321 1183 l 419 1092 b 546 1133 433 1133 447 1176 b 681 1100 588 1115 635 1100 b 854 1285 792 1100 840 1186 z "},"Š":{"ha":1003,"x_min":0,"x_max":0,"o":"m 929 710 b 501 1026 906 885 779 1026 b 68 707 251 1026 68 919 b 643 278 68 325 643 429 b 507 204 643 231 589 204 b 414 229 475 204 440 213 b 360 308 386 246 367 272 l 46 308 b 489 -26 53 128 225 -26 b 957 318 764 -26 957 86 b 382 739 957 682 382 589 b 486 796 382 775 414 796 b 571 778 518 796 547 790 b 618 710 594 765 613 744 z m 583 1297 l 506 1193 l 428 1297 l 224 1297 l 392 1092 l 619 1092 l 789 1297 z "},"Ú":{"ha":1157,"x_min":0,"x_max":0,"o":"m 97 436 b 579 -26 97 92 269 -26 b 1060 435 911 -26 1060 114 l 1060 1000 l 732 1000 l 732 401 b 579 218 732 293 697 218 b 425 401 444 218 425 303 l 425 1000 l 97 1000 z m 439 1092 l 629 1092 l 868 1297 l 578 1297 z "},"Û":{"ha":1157,"x_min":0,"x_max":0,"o":"m 97 436 b 579 -26 97 92 269 -26 b 1060 435 911 -26 1060 114 l 1060 1000 l 732 1000 l 732 401 b 579 218 732 293 697 218 b 425 401 444 218 425 303 l 425 1000 l 97 1000 z m 300 1092 l 504 1092 l 582 1197 l 660 1092 l 865 1092 l 696 1297 l 468 1297 z "},"Ü":{"ha":1157,"x_min":0,"x_max":0,"o":"m 97 436 b 579 -26 97 92 269 -26 b 1060 435 911 -26 1060 114 l 1060 1000 l 732 1000 l 732 401 b 579 218 732 293 697 218 b 425 401 444 218 425 303 l 425 1000 l 97 1000 z m 624 1100 l 858 1100 l 858 1281 l 624 1281 z m 542 1100 l 542 1281 l 307 1281 l 307 1100 z "},"Ù":{"ha":1157,"x_min":0,"x_max":0,"o":"m 97 436 b 579 -26 97 92 269 -26 b 1060 435 911 -26 1060 114 l 1060 1000 l 732 1000 l 732 401 b 579 218 732 293 697 218 b 425 401 444 218 425 303 l 425 1000 l 97 1000 z m 297 1297 l 535 1092 l 725 1092 l 586 1297 z "},"Ý":{"ha":1081,"x_min":0,"x_max":0,"o":"m 704 369 l 1076 1000 l 715 1000 l 543 661 l 371 1000 l 4 1000 l 376 364 l 376 0 l 704 0 z m 401 1092 l 592 1092 l 831 1297 l 540 1297 z "},"Ÿ":{"ha":1081,"x_min":0,"x_max":0,"o":"m 704 369 l 1076 1000 l 715 1000 l 543 661 l 371 1000 l 4 1000 l 376 364 l 376 0 l 704 0 z m 586 1100 l 821 1100 l 821 1281 l 586 1281 z m 504 1100 l 504 1281 l 269 1281 l 269 1100 z "},"Ž":{"ha":1003,"x_min":0,"x_max":0,"o":"m 951 0 l 951 233 l 446 233 l 932 768 l 932 1000 l 69 1000 l 69 767 l 529 767 l 50 238 l 50 0 z m 583 1297 l 506 1193 l 428 1297 l 224 1297 l 392 1092 l 619 1092 l 789 1297 z "},"á":{"ha":926,"x_min":0,"x_max":0,"o":"m 881 0 l 881 14 b 842 107 843 44 842 65 l 842 447 b 476 749 842 621 821 749 b 79 504 189 749 79 658 l 357 504 b 458 575 364 567 418 575 b 553 515 489 575 553 568 b 35 199 553 379 35 529 b 294 -21 35 47 157 -21 b 568 78 403 -21 486 1 l 582 0 z m 425 143 b 333 204 368 143 333 168 b 553 322 333 299 458 276 b 425 143 560 222 526 143 z m 324 819 l 514 819 l 753 1025 l 463 1025 z "},"â":{"ha":926,"x_min":0,"x_max":0,"o":"m 881 0 l 881 14 b 842 107 843 44 842 65 l 842 447 b 476 749 842 621 821 749 b 79 504 189 749 79 658 l 357 504 b 458 575 364 567 418 575 b 553 515 489 575 553 568 b 35 199 553 379 35 529 b 294 -21 35 47 157 -21 b 568 78 403 -21 486 1 l 582 0 z m 425 143 b 333 204 368 143 333 168 b 553 322 333 299 458 276 b 425 143 560 222 526 143 z m 185 819 l 389 819 l 467 925 l 544 819 l 750 819 l 581 1025 l 353 1025 z "},"ä":{"ha":926,"x_min":0,"x_max":0,"o":"m 881 0 l 881 14 b 842 107 843 44 842 65 l 842 447 b 476 749 842 621 821 749 b 79 504 189 749 79 658 l 357 504 b 458 575 364 567 418 575 b 553 515 489 575 553 568 b 35 199 553 379 35 529 b 294 -21 35 47 157 -21 b 568 78 403 -21 486 1 l 582 0 z m 425 143 b 333 204 368 143 333 168 b 553 322 333 299 458 276 b 425 143 560 222 526 143 z m 508 828 l 743 828 l 743 1008 l 508 1008 z m 426 828 l 426 1008 l 192 1008 l 192 828 z "},"à":{"ha":926,"x_min":0,"x_max":0,"o":"m 881 0 l 881 14 b 842 107 843 44 842 65 l 842 447 b 476 749 842 621 821 749 b 79 504 189 749 79 658 l 357 504 b 458 575 364 567 418 575 b 553 515 489 575 553 568 b 35 199 553 379 35 529 b 294 -21 35 47 157 -21 b 568 78 403 -21 486 1 l 582 0 z m 425 143 b 333 204 368 143 333 168 b 553 322 333 299 458 276 b 425 143 560 222 526 143 z m 182 1025 l 419 819 l 610 819 l 471 1025 z "},"å":{"ha":926,"x_min":0,"x_max":0,"o":"m 881 0 l 881 14 b 842 107 843 44 842 65 l 842 447 b 476 749 842 621 821 749 b 79 504 189 749 79 658 l 357 504 b 458 575 364 567 418 575 b 553 515 489 575 553 568 b 35 199 553 379 35 529 b 294 -21 35 47 157 -21 b 568 78 403 -21 486 1 l 582 0 z m 425 143 b 333 204 368 143 333 168 b 553 322 333 299 458 276 b 425 143 560 222 526 143 z m 464 824 b 619 979 549 824 619 894 b 464 1135 619 1064 549 1135 b 307 979 379 1135 307 1065 b 464 824 307 893 379 824 z m 464 1051 b 536 979 503 1051 536 1017 b 464 907 536 942 503 907 b 390 979 425 907 390 940 b 464 1051 390 1018 425 1051 z "},"ã":{"ha":926,"x_min":0,"x_max":0,"o":"m 881 0 l 881 14 b 842 107 843 44 842 65 l 842 447 b 476 749 842 621 821 749 b 79 504 189 749 79 658 l 357 504 b 458 575 364 567 418 575 b 553 515 489 575 553 568 b 35 199 553 379 35 529 b 294 -21 35 47 157 -21 b 568 78 403 -21 486 1 l 582 0 z m 425 143 b 333 204 368 143 333 168 b 553 322 333 299 458 276 b 425 143 560 222 526 143 z m 628 1013 b 539 967 624 985 592 950 b 365 1015 474 988 435 1015 b 194 819 260 1015 206 911 l 304 819 b 431 861 318 861 332 904 b 565 828 472 843 519 828 b 739 1013 676 828 725 914 z "},"ç":{"ha":926,"x_min":0,"x_max":0,"o":"m 858 450 b 460 749 838 665 654 749 b 44 357 219 749 44 606 b 408 -17 44 129 200 -1 l 342 -128 l 376 -161 b 474 -232 472 -115 519 -199 b 418 -247 457 -244 438 -247 b 300 -219 376 -247 339 -229 l 271 -283 b 453 -322 332 -306 388 -322 b 626 -214 524 -322 606 -287 b 528 -86 646 -147 586 -92 b 444 -89 511 -85 475 -76 l 488 -19 b 864 282 678 -12 840 71 l 572 282 b 460 174 564 225 535 174 b 333 356 375 174 333 246 b 460 554 333 442 351 554 b 535 525 492 554 517 544 b 565 450 553 507 564 482 z "},"é":{"ha":926,"x_min":0,"x_max":0,"o":"m 332 446 b 467 572 332 524 381 572 b 594 446 535 572 594 513 z m 883 299 b 456 749 888 563 725 749 b 43 357 222 749 43 596 b 457 -21 43 113 224 -21 b 860 219 626 -21 810 39 l 583 219 b 475 156 563 176 521 156 b 332 299 399 156 332 213 z m 324 819 l 514 819 l 753 1025 l 463 1025 z "},"ê":{"ha":926,"x_min":0,"x_max":0,"o":"m 332 446 b 467 572 332 524 381 572 b 594 446 535 572 594 513 z m 883 299 b 456 749 888 563 725 749 b 43 357 222 749 43 596 b 457 -21 43 113 224 -21 b 860 219 626 -21 810 39 l 583 219 b 475 156 563 176 521 156 b 332 299 399 156 332 213 z m 185 819 l 389 819 l 467 925 l 544 819 l 750 819 l 581 1025 l 353 1025 z "},"ë":{"ha":926,"x_min":0,"x_max":0,"o":"m 332 446 b 467 572 332 524 381 572 b 594 446 535 572 594 513 z m 883 299 b 456 749 888 563 725 749 b 43 357 222 749 43 596 b 457 -21 43 113 224 -21 b 860 219 626 -21 810 39 l 583 219 b 475 156 563 176 521 156 b 332 299 399 156 332 213 z m 508 828 l 743 828 l 743 1008 l 508 1008 z m 426 828 l 426 1008 l 192 1008 l 192 828 z "},"è":{"ha":926,"x_min":0,"x_max":0,"o":"m 332 446 b 467 572 332 524 381 572 b 594 446 535 572 594 513 z m 883 299 b 456 749 888 563 725 749 b 43 357 222 749 43 596 b 457 -21 43 113 224 -21 b 860 219 626 -21 810 39 l 583 219 b 475 156 563 176 521 156 b 332 299 399 156 332 213 z m 182 1025 l 419 819 l 610 819 l 471 1025 z "},"í":{"ha":463,"x_min":0,"x_max":0,"o":"m 375 0 l 375 728 l 86 728 l 86 0 z m 92 819 l 282 819 l 521 1025 l 231 1025 z "},"î":{"ha":463,"x_min":0,"x_max":0,"o":"m 375 0 l 375 728 l 86 728 l 86 0 z m -47 819 l 157 819 l 235 925 l 313 819 l 518 819 l 349 1025 l 121 1025 z "},"ï":{"ha":463,"x_min":0,"x_max":0,"o":"m 375 0 l 375 728 l 86 728 l 86 0 z m 276 828 l 511 828 l 511 1008 l 276 1008 z m 194 828 l 194 1008 l -40 1008 l -40 828 z "},"ì":{"ha":463,"x_min":0,"x_max":0,"o":"m 375 0 l 375 728 l 86 728 l 86 0 z m -50 1025 l 188 819 l 378 819 l 239 1025 z "},"ñ":{"ha":926,"x_min":0,"x_max":0,"o":"m 67 0 l 356 0 l 356 371 b 468 521 356 464 379 521 b 569 385 550 521 569 457 l 569 0 l 858 0 l 858 436 b 576 749 858 636 768 749 b 331 614 467 749 396 701 l 331 728 l 67 728 z m 628 1013 b 539 967 624 985 592 950 b 365 1015 474 988 435 1015 b 194 819 260 1015 206 911 l 304 819 b 431 861 318 861 332 904 b 565 828 472 843 519 828 b 739 1013 676 828 725 914 z "},"ó":{"ha":926,"x_min":0,"x_max":0,"o":"m 465 554 b 588 371 540 558 588 478 b 463 174 588 233 540 174 b 338 371 389 174 338 233 b 465 554 338 453 367 554 z m 49 356 b 463 -21 49 107 229 -21 b 876 371 696 -21 876 104 b 461 749 876 597 718 749 b 49 356 215 749 49 608 z m 324 819 l 514 819 l 753 1025 l 463 1025 z "},"ô":{"ha":926,"x_min":0,"x_max":0,"o":"m 465 554 b 588 371 540 558 588 478 b 463 174 588 233 540 174 b 338 371 389 174 338 233 b 465 554 338 453 367 554 z m 49 356 b 463 -21 49 107 229 -21 b 876 371 696 -21 876 104 b 461 749 876 597 718 749 b 49 356 215 749 49 608 z m 185 819 l 389 819 l 467 925 l 544 819 l 750 819 l 581 1025 l 353 1025 z "},"ö":{"ha":926,"x_min":0,"x_max":0,"o":"m 465 554 b 588 371 540 558 588 478 b 463 174 588 233 540 174 b 338 371 389 174 338 233 b 465 554 338 453 367 554 z m 49 356 b 463 -21 49 107 229 -21 b 876 371 696 -21 876 104 b 461 749 876 597 718 749 b 49 356 215 749 49 608 z m 508 828 l 743 828 l 743 1008 l 508 1008 z m 426 828 l 426 1008 l 192 1008 l 192 828 z "},"ò":{"ha":926,"x_min":0,"x_max":0,"o":"m 465 554 b 588 371 540 558 588 478 b 463 174 588 233 540 174 b 338 371 389 174 338 233 b 465 554 338 453 367 554 z m 49 356 b 463 -21 49 107 229 -21 b 876 371 696 -21 876 104 b 461 749 876 597 718 749 b 49 356 215 749 49 608 z m 182 1025 l 419 819 l 610 819 l 471 1025 z "},"õ":{"ha":926,"x_min":0,"x_max":0,"o":"m 465 554 b 588 371 540 558 588 478 b 463 174 588 233 540 174 b 338 371 389 174 338 233 b 465 554 338 453 367 554 z m 49 356 b 463 -21 49 107 229 -21 b 876 371 696 -21 876 104 b 461 749 876 597 718 749 b 49 356 215 749 49 608 z m 628 1013 b 539 967 624 985 592 950 b 365 1015 474 988 435 1015 b 194 819 260 1015 206 911 l 304 819 b 431 861 318 861 332 904 b 565 828 472 843 519 828 b 739 1013 676 828 725 914 z "},"š":{"ha":849,"x_min":0,"x_max":0,"o":"m 46 226 b 411 -21 61 31 244 -21 b 803 233 678 -21 803 82 b 343 539 803 506 343 438 b 425 590 343 575 375 590 b 483 572 447 590 468 585 b 511 519 499 560 508 543 l 774 519 b 413 749 757 713 571 749 b 68 508 261 749 68 694 b 514 203 68 226 514 319 b 422 138 514 151 467 138 b 351 160 394 138 369 146 b 321 226 332 175 321 197 z m 506 1025 l 428 921 l 350 1025 l 146 1025 l 314 819 l 542 819 l 711 1025 z "},"ú":{"ha":926,"x_min":0,"x_max":0,"o":"m 858 728 l 569 728 l 569 378 b 460 203 569 265 543 203 b 356 335 390 203 356 235 l 356 728 l 67 728 l 67 285 b 328 -21 67 76 169 -21 b 590 107 447 -21 518 7 l 590 0 l 858 0 z m 324 819 l 514 819 l 753 1025 l 463 1025 z "},"û":{"ha":926,"x_min":0,"x_max":0,"o":"m 858 728 l 569 728 l 569 378 b 460 203 569 265 543 203 b 356 335 390 203 356 235 l 356 728 l 67 728 l 67 285 b 328 -21 67 76 169 -21 b 590 107 447 -21 518 7 l 590 0 l 858 0 z m 185 819 l 389 819 l 467 925 l 544 819 l 750 819 l 581 1025 l 353 1025 z "},"ü":{"ha":926,"x_min":0,"x_max":0,"o":"m 858 728 l 569 728 l 569 378 b 460 203 569 265 543 203 b 356 335 390 203 356 235 l 356 728 l 67 728 l 67 285 b 328 -21 67 76 169 -21 b 590 107 447 -21 518 7 l 590 0 l 858 0 z m 508 828 l 743 828 l 743 1008 l 508 1008 z m 426 828 l 426 1008 l 192 1008 l 192 828 z "},"ù":{"ha":926,"x_min":0,"x_max":0,"o":"m 858 728 l 569 728 l 569 378 b 460 203 569 265 543 203 b 356 335 390 203 356 235 l 356 728 l 67 728 l 67 285 b 328 -21 67 76 169 -21 b 590 107 447 -21 518 7 l 590 0 l 858 0 z m 182 1025 l 419 819 l 610 819 l 471 1025 z "},"ý":{"ha":849,"x_min":0,"x_max":0,"o":"m 299 728 l 8 728 l 247 65 b 165 -42 276 -15 256 -42 b 106 -40 146 -42 126 -40 l 106 -242 b 233 -247 128 -242 181 -247 b 597 49 490 -247 521 -176 l 831 728 l 553 728 l 426 279 z m 285 819 l 475 819 l 714 1025 l 424 1025 z "},"ÿ":{"ha":849,"x_min":0,"x_max":0,"o":"m 299 728 l 8 728 l 247 65 b 165 -42 276 -15 256 -42 b 106 -40 146 -42 126 -40 l 106 -242 b 233 -247 128 -242 181 -247 b 597 49 490 -247 521 -176 l 831 728 l 553 728 l 426 279 z m 469 828 l 704 828 l 704 1008 l 469 1008 z m 388 828 l 388 1008 l 153 1008 l 153 828 z "},"ž":{"ha":772,"x_min":0,"x_max":0,"o":"m 736 0 l 736 211 l 403 211 l 721 526 l 721 728 l 65 728 l 65 517 l 365 517 l 36 193 l 36 0 z m 468 1025 l 390 921 l 313 1025 l 108 1025 l 276 819 l 504 819 l 674 1025 z "},"∆":{"ha":1074,"x_min":0,"x_max":0,"o":"m 35 0 l 1038 0 l 1038 125 l 690 997 l 392 997 l 35 124 z m 299 185 l 456 585 b 524 789 478 653 511 746 l 531 789 b 606 567 547 729 583 633 l 758 185 z "},"Ω":{"ha":1181,"x_min":0,"x_max":0,"o":"m 274 183 l 57 183 l 57 0 l 529 0 l 529 140 b 329 501 415 196 329 325 b 593 807 329 686 442 807 b 851 508 754 807 851 672 b 651 140 851 308 763 207 l 651 0 l 1121 0 l 1121 183 l 900 183 l 900 189 b 1101 556 1007 265 1101 382 b 592 992 1101 774 917 992 b 76 551 278 992 76 789 b 274 189 76 375 181 254 z "},"μ":{"ha":926,"x_min":0,"x_max":0,"o":"m 858 0 l 858 728 l 569 728 l 569 378 b 460 203 569 265 543 203 b 356 335 390 203 356 235 l 356 728 l 67 728 l 67 -247 l 356 -247 l 356 -17 b 590 107 447 -21 518 7 l 590 0 z "},"π":{"ha":999,"x_min":0,"x_max":0,"o":"m 961 546 l 981 736 l 282 736 b 1 682 128 736 38 717 l 25 533 b 176 546 65 544 117 546 b 88 0 176 401 135 150 l 332 0 b 422 546 382 119 418 389 l 606 546 l 606 217 b 633 0 606 121 613 29 l 876 0 b 857 233 865 47 857 131 l 857 546 z "},"€":{"ha":926,"x_min":0,"x_max":0,"o":"m 689 308 l 739 431 l 449 431 b 449 510 446 457 447 483 l 772 510 l 822 632 l 464 632 b 638 776 482 708 533 776 b 843 675 754 776 814 718 l 922 871 b 613 993 840 960 731 993 b 169 632 418 993 219 892 l 74 632 l 22 510 l 158 510 b 161 431 158 483 158 457 l 57 431 l 6 308 l 176 308 b 601 -21 231 118 368 -21 b 868 56 696 -21 801 0 l 868 293 b 644 196 799 194 688 196 b 469 308 563 196 497 235 z "},"ℓ":{"ha":878,"x_min":0,"x_max":0,"o":"m 743 301 b 535 175 694 236 618 175 b 410 288 465 175 415 219 l 408 325 b 732 806 613 492 732 635 b 479 1068 732 946 654 1068 b 171 674 294 1068 171 946 l 171 368 b 38 275 129 338 82 307 l 103 154 b 176 204 129 171 150 186 b 178 192 176 200 176 196 b 474 -17 211 63 301 -17 b 844 199 607 -17 750 36 z m 408 719 b 492 911 408 867 451 911 b 563 810 542 911 563 872 b 408 528 563 728 501 622 z "},"℮":{"ha":1222,"x_min":0,"x_max":0,"o":"m 1174 472 l 1174 486 b 610 993 1174 765 922 993 b 47 486 299 993 47 765 b 610 -19 47 207 299 -19 b 1056 176 792 -19 954 58 l 974 176 b 611 8 886 75 757 8 b 267 158 476 8 354 67 b 254 190 258 168 254 178 l 254 465 b 261 472 254 471 257 472 z m 967 508 b 961 499 967 506 965 499 l 261 499 b 254 508 257 499 254 506 l 254 779 b 268 814 254 793 258 806 b 611 963 357 904 478 963 b 953 818 744 963 865 906 b 967 785 963 810 967 797 z "},"∂":{"ha":944,"x_min":0,"x_max":0,"o":"m 157 849 b 375 913 194 872 269 913 b 640 607 546 913 640 763 b 639 574 640 599 640 581 l 638 574 b 399 693 613 611 532 693 b 47 325 190 693 47 536 b 401 -17 47 185 157 -17 b 881 557 686 -17 881 210 b 407 1100 881 893 674 1100 b 88 1011 239 1100 133 1042 z m 428 169 b 292 321 349 169 292 236 b 456 513 292 425 358 513 b 615 397 547 513 604 438 b 429 169 601 294 532 169 z "},"∏":{"ha":1164,"x_min":0,"x_max":0,"o":"m 1133 772 l 1133 975 l 29 975 l 29 772 l 192 772 l 192 -135 l 432 -135 l 432 772 l 731 772 l 731 -135 l 971 -135 l 971 772 z "},"∑":{"ha":910,"x_min":0,"x_max":0,"o":"m 888 -135 l 888 71 l 351 71 l 351 76 l 674 446 l 383 772 l 383 778 l 856 778 l 856 975 l 49 975 l 49 819 l 397 417 l 32 0 l 32 -135 z "},"∙":{"ha":463,"x_min":0,"x_max":0,"o":"m 231 175 b 411 356 329 175 411 257 b 231 536 411 454 329 536 b 50 356 132 536 50 454 b 231 175 50 257 132 175 z "},"√":{"ha":965,"x_min":0,"x_max":0,"o":"m 999 1169 l 828 1169 l 564 163 b 536 31 551 113 543 65 l 533 32 b 497 154 522 68 510 111 l 336 589 l 42 468 l 81 350 l 196 396 l 438 -203 l 626 -203 z "},"∞":{"ha":1161,"x_min":0,"x_max":0,"o":"m 1092 404 b 853 658 1092 558 983 657 b 589 500 717 660 643 563 b 324 658 514 600 435 658 b 67 394 178 658 67 551 b 308 136 67 239 183 136 b 579 300 428 136 504 206 b 844 136 676 165 767 136 b 1092 403 969 136 1092 235 z m 324 258 b 192 394 249 258 192 321 b 319 539 192 482 246 539 b 513 389 411 539 456 469 b 325 258 463 326 403 258 z m 840 539 b 967 393 917 539 967 476 b 847 258 967 335 924 258 b 650 400 781 258 735 289 b 839 539 694 454 756 539 z "},"∫":{"ha":614,"x_min":0,"x_max":0,"o":"m 596 1197 b 496 1215 576 1206 536 1215 b 300 1146 424 1215 347 1194 b 200 819 231 1078 200 985 b 226 146 200 575 226 410 b 186 -57 226 31 214 -22 b 114 -86 168 -78 142 -86 b 46 -72 88 -86 63 -79 l 18 -228 b 151 -251 46 -242 103 -251 b 371 -131 235 -251 324 -218 b 424 144 403 -74 424 21 b 399 796 424 403 399 565 b 435 1019 399 907 406 981 b 515 1060 451 1046 482 1060 b 574 1049 536 1060 557 1054 z "},"≈":{"ha":861,"x_min":0,"x_max":0,"o":"m 725 664 b 581 561 679 601 638 561 b 447 615 535 561 507 579 b 288 665 406 639 360 665 b 47 514 190 665 94 594 l 129 431 b 282 533 172 483 215 533 b 411 486 333 533 369 510 b 586 429 478 449 519 429 b 808 581 664 429 746 483 z m 725 376 b 579 272 676 311 639 272 b 447 328 526 272 493 301 b 288 376 406 351 360 376 b 47 225 190 376 94 307 l 129 142 b 282 244 172 196 214 244 b 411 199 331 244 367 224 b 583 140 474 163 518 140 b 808 293 667 140 746 197 z "},"≠":{"ha":861,"x_min":0,"x_max":0,"o":"m 643 739 l 538 785 l 463 619 l 72 619 l 72 489 l 408 489 l 326 304 l 72 304 l 72 174 l 271 174 l 215 50 l 321 4 l 396 174 l 789 174 l 789 304 l 451 304 l 535 489 l 789 489 l 789 619 l 589 619 z "},"≤":{"ha":861,"x_min":0,"x_max":0,"o":"m 786 164 l 786 310 l 214 553 l 214 556 l 785 797 l 785 943 l 76 624 l 76 483 z m 789 -21 l 789 113 l 74 113 l 74 -21 z "},"≥":{"ha":861,"x_min":0,"x_max":0,"o":"m 78 943 l 78 797 l 650 556 l 650 553 l 79 310 l 79 164 l 788 482 l 788 624 z m 783 -21 l 783 113 l 75 113 l 75 -21 z "},"◊":{"ha":964,"x_min":0,"x_max":0,"o":"m 894 486 l 576 1044 l 390 1044 l 71 486 l 386 -71 l 572 -71 z m 685 482 l 511 167 b 485 103 503 151 490 118 l 479 103 b 454 168 475 118 464 146 l 279 490 l 450 801 b 479 869 461 822 472 850 l 482 869 b 510 801 488 850 500 822 z "}," ":{"ha":463,"x_min":0,"x_max":0,"o":""},"­":{"ha":463,"x_min":0,"x_max":0,"o":"m 417 229 l 417 482 l 44 482 l 44 229 z "},"ˉ":{"ha":463,"x_min":0,"x_max":0,"o":"m 497 860 l 497 985 l -26 985 l -26 860 z "},"Ω":{"ha":1181,"x_min":0,"x_max":0,"o":"m 274 183 l 57 183 l 57 0 l 529 0 l 529 140 b 329 501 415 196 329 325 b 593 807 329 686 442 807 b 851 508 754 807 851 672 b 651 140 851 308 763 207 l 651 0 l 1121 0 l 1121 183 l 900 183 l 900 189 b 1101 556 1007 265 1101 382 b 592 992 1101 774 917 992 b 76 551 278 992 76 789 b 274 189 76 375 181 254 z "},"∕":{"ha":232,"x_min":0,"x_max":0,"o":"m -96 -21 l 464 993 l 328 993 l -232 -21 z "}}}
